<svg width="45" height="45" viewBox="0 0 45 45" fill="none" xmlns="http://www.w3.org/2000/svg">
<rect width="45" height="45" rx="11.8421" fill="#FB8F2D"/>
<path opacity="0.4" d="M22.5006 25.9319C23.0781 25.9319 23.5462 25.4638 23.5462 24.8864C23.5462 24.3089 23.0781 23.8408 22.5006 23.8408C21.9232 23.8408 21.4551 24.3089 21.4551 24.8864C21.4551 25.4638 21.9232 25.9319 22.5006 25.9319Z" fill="white"/>
<path d="M25.4831 20.8574H19.5177C16.8877 20.8574 16.0859 21.6592 16.0859 24.2892V25.4823C16.0859 28.1122 16.8877 28.914 19.5177 28.914H25.4831C28.1131 28.914 28.9149 28.1122 28.9149 25.4823V24.2892C28.9149 21.6592 28.1131 20.8574 25.4831 20.8574ZM22.5004 26.8229C21.4292 26.8229 20.5632 25.9505 20.5632 24.8857C20.5632 23.8209 21.4292 22.9485 22.5004 22.9485C23.5716 22.9485 24.4376 23.8209 24.4376 24.8857C24.4376 25.9505 23.5716 26.8229 22.5004 26.8229Z" fill="white"/>
<path d="M19.3697 20.8647V20.1142C19.3697 18.2348 19.9021 16.984 22.5 16.984C25.2774 16.984 25.6302 18.3374 25.6302 19.5177C25.6302 19.7678 25.8291 19.9667 26.0792 19.9667C26.3294 19.9667 26.5283 19.7678 26.5283 19.5177C26.5283 17.2405 25.1748 16.0859 22.5 16.0859C18.8886 16.0859 18.4717 18.3823 18.4717 20.1142V20.916C18.7411 20.884 19.0426 20.8647 19.3697 20.8647Z" fill="white"/>
</svg>
